{"title":"Once Upon a Time S06E18 720p HDTV x265 HEVC Download","magnet":"magnet:?xt=urn:btih:30a04884f63876856eea69ea15e0a726f61ec06c&dn=Once+Upon+a+Time+S06E18+720p+HDTV+x265+HEVC+Download&tr=udp%3A%2F%2Ftracker.leechers-paradise.org%3A6969&tr=udp%3A%2F%2Fzer0day.ch%3A1337&tr=udp%3A%2F%2Fopen.demonii.com%3A1337&tr=udp%3A%2F%2Ftracker.coppersurfer.tk%3A6969&tr=udp%3A%2F%2Fexodus.desync.com%3A6969","uploader":"Browse digimaza","categoryP":"video","categoryS":"hd___tv_shows","size":"225608212","seeders":"9","leechers":"2","description":"Once Upon a Time S06E18 720p HDTV x265 HEVC Download <a href=\"\nhttp://i.imgur.com/a2g8yLk.jpg\" rel=\"nofollow\" target=\"_NEW\">\nhttp://i.imgur.com/a2g8yLk.jpg</a>\r\n\r\nA young woman with a troubled past is drawn to a small town in Maine where fairy tales are to be believed.\r\n\r\n..::File Specs::.. \r\n\r\nGeneral \r\n\r\nFormat                      : Matroska \r\nFormat version              : Version 4 / Version 2 \r\nFile size                   : 215 MiB \r\nDuration                    : 41 min 34 s \r\nOverall bit rate            : 723 kb/s \r\n\r\nVideo \r\nID                          : 1 \r\nFormat                      : HEVC \r\nFormat/Info                 : High Efficiency Video Coding \r\nFormat profile              : <a class=\"__cf_email__\" href=\"/cdn-cgi/l/email-protection\" data-cfemail=\"296448404769651a0718\">[email&#xA0;protected]</a><script data-cfhash=\"f9e31\" type=\"text/javascript\">/* <![CDATA[ */!function(t,e,r,n,c,a,p){try{t=document.currentScript||function(){for(t=document.getElementsByTagName('script'),e=t.length;e--;)if(t[e].getAttribute('data-cfhash'))return t[e]}();if(t&&(c=t.previousSibling)){p=t.parentNode;if(a=c.getAttribute('data-cfemail')){for(e='',r='0x'+a.substr(0,2)|0,n=2;a.length-n;n+=2)e+='%'+('0'+('0x'+a.substr(n,2)^r).toString(16)).slice(-2);p.replaceChild(document.createTextNode(decodeURIComponent(e)),c)}p.removeChild(t)}}catch(u){}}()/* ]]> */</script>@Main \r\nCodec ID                    : V_MPEGH/ISO/HEVC \r\nDuration                    : 41 min 34 s \r\nBit rate                    : 658 kb/s \r\nWidth                       : 1 280 pixels \r\nHeight                      : 720 pixels \r\nOriginal height             : 718 pixels \r\nDisplay aspect ratio        : 16:9 \r\nFrame rate mode             : Constant \r\nFrame rate                  : 23.976 (24000/1001) FPS \r\nColor space                 : YUV \r\nChroma subsampling          : 4:2:0 \r\nBit depth                   : 8 bits \r\nBits/(Pixel*Frame)          : 0.030 \r\nStream size                 : 196 MiB (91%) \r\n\r\nAudio \r\nID                          : 2 \r\nFormat                      : AAC \r\nFormat/Info                 : Advanced Audio Codec \r\nFormat profile              : HE-AAC / LC \r\nCodec ID                    : A_AAC \r\nDuration                    : 41 min 34 s \r\nBit rate                    : 64.0 kb/s \r\nChannel(s)                  : 2 channels \r\nChannel positions           : Front: L R \r\nSampling rate               : 48.0 kHz / 24.0 kHz \r\nFrame rate                  : 23.438 FPS (1024 spf) \r\nCompression mode            : Lossy \r\nDelay relative to video     : 31 ms \r\nStream size                 : 19.0 MiB (9%) \r\n\r\n..::ScreenShots::.. \r\n <a href=\"\nhttps://s2.postimg.org/6jz3wdpex/vlcsnap-2017-04-23-19h46m41s179.png\" rel=\"nofollow\" target=\"_NEW\">\nhttps://s2.postimg.org/6jz3wdpex/vlcsnap-2017-04-23-19h46m41s179.png</a>  <a href=\"\nhttps://s2.postimg.org/wtk6f6bc9/vlcsnap-2017-04-23-19h46m48s163.png\" rel=\"nofollow\" target=\"_NEW\">\nhttps://s2.postimg.org/wtk6f6bc9/vlcsnap-2017-04-23-19h46m48s163.png</a>  <a href=\"\nhttps://s2.postimg.org/gju0ca0o9/vlcsnap-2017-04-23-19h47m00s881.png\" rel=\"nofollow\" target=\"_NEW\">\nhttps://s2.postimg.org/gju0ca0o9/vlcsnap-2017-04-23-19h47m00s881.png</a> \r\n\r\n================================================================ \r\nSeed Seed Seed Seed Seed Seed Seed Seed Seed Seed Seed Seed Seed \r\nIf You Like Our Work For You, Consider a BTC Donation. \r\n1QDS1uDYov85ZdJeWyxYH4ttXoYvPEyaxe \r\n================================================================","last_updated":"2017-04-25T12:47:27.822Z","parsed":{"xt":"urn:btih:30a04884f63876856eea69ea15e0a726f61ec06c","dn":"Once Upon a Time S06E18 720p HDTV x265 HEVC Download","tr":["udp://exodus.desync.com:6969","udp://open.demonii.com:1337","udp://tracker.coppersurfer.tk:6969","udp://tracker.leechers-paradise.org:6969","udp://zer0day.ch:1337"],"infoHash":"30a04884f63876856eea69ea15e0a726f61ec06c","infoHashBuffer":{"type":"Buffer","data":[48,160,72,132,246,56,118,133,110,234,105,234,21,224,167,38,246,30,192,108]},"name":"Once Upon a Time S06E18 720p HDTV x265 HEVC Download","announce":["udp://exodus.desync.com:6969","udp://open.demonii.com:1337","udp://tracker.coppersurfer.tk:6969","udp://tracker.leechers-paradise.org:6969","udp://zer0day.ch:1337"],"urlList":[]}}